<svg width="179" height="179" viewBox="0 0 179 179" fill="none" xmlns="http://www.w3.org/2000/svg">
<path d="M143.977 20C156.472 20.0002 164.145 33.6822 157.629 44.3438L129.726 90L157.629 135.656C164.145 146.318 156.472 160 143.977 160H36.0257C23.5306 160 15.8574 146.318 22.3733 135.656L50.2757 90L22.3733 44.3438C15.8574 33.6821 23.5306 20 36.0257 20H143.977ZM71.4192 60C67.0414 60 64.1368 64.5372 65.97 68.5127L75.1819 88.4902C75.4644 89.1028 75.7778 89.6843 76.1155 90.2363C75.7943 90.7609 75.4965 91.3134 75.2249 91.8926L66.053 111.452C64.1873 115.431 67.0904 120 71.4846 120H107.938C112.332 120 115.236 115.431 113.37 111.452L104.198 91.8926C103.926 91.3135 103.628 90.7617 103.307 90.2373C103.645 89.6848 103.959 89.1033 104.241 88.4902L113.453 68.5127C115.287 64.5372 112.383 60 108.005 60H71.4192Z" fill="#F4AA41"/>
</svg>
