<svg width="300" height="300" viewBox="0 0 300 300" fill="none" xmlns="http://www.w3.org/2000/svg">
<g clip-path="url(#clip0_265_53)">
<path d="M150 0C273.525 0 300 26.475 300 150C300 182.009 298.22 207.501 293.437 227.705C285.106 219.83 273.868 215 261.5 215C235.819 215 215 235.819 215 261.5C215 273.868 219.83 285.106 227.705 293.437C207.501 298.22 182.009 300 150 300C26.475 300 0 273.525 0 150C0 26.475 26.475 0 150 0Z" fill="white"/>
<g clip-path="url(#clip1_265_53)">
<circle cx="261.5" cy="261.5" r="38.5" fill="white"/>
<circle cx="261.5" cy="261.5" r="38.5" stroke="black"/>
<g clip-path="url(#clip2_265_53)">
<path d="M262.038 264.617L253.302 260.068L238.137 252.172C238.123 252.159 238.096 252.159 238.082 252.159C237.528 251.9 236.961 252.445 237.168 252.991L244.895 272.405L244.897 272.409C244.905 272.428 244.912 272.447 244.92 272.466C245.237 273.19 245.929 273.637 246.682 273.813C246.746 273.827 246.792 273.839 246.868 273.854C246.944 273.871 247.051 273.894 247.142 273.901C247.157 273.902 247.171 273.902 247.186 273.903H247.197C247.209 273.905 247.22 273.905 247.231 273.906H247.246C247.256 273.907 247.267 273.907 247.276 273.907H247.294C247.305 273.909 247.316 273.909 247.328 273.909C257.114 274.96 266.987 274.96 276.773 273.909C276.89 273.909 277.005 273.903 277.116 273.892C277.152 273.888 277.186 273.884 277.221 273.88C277.225 273.879 277.231 273.879 277.235 273.877C277.258 273.875 277.282 273.871 277.305 273.866C277.34 273.862 277.375 273.856 277.409 273.849C277.479 273.834 277.51 273.823 277.604 273.791C277.698 273.759 277.854 273.704 277.951 273.657C278.049 273.611 278.117 273.566 278.198 273.516C278.299 273.453 278.396 273.389 278.493 273.317C278.535 273.285 278.564 273.265 278.594 273.236L278.578 273.227L262.038 264.617Z" fill="#FF4B4B"/>
<path d="M285.964 252.172H285.951L270.78 260.068L279.213 272.44L286.921 252.991V252.963C287.115 252.391 286.52 251.872 285.964 252.172Z" fill="#7D353B"/>
<path d="M262.847 248.418C262.459 247.861 261.615 247.861 261.241 248.418L253.302 260.068L262.038 264.617L278.594 273.236C278.698 273.136 278.782 273.038 278.87 272.935C278.994 272.784 279.111 272.622 279.213 272.44L270.78 260.068L262.847 248.418Z" fill="#BD4043"/>
</g>
</g>
<path d="M203.976 80C216.471 80 224.144 93.6821 217.629 104.344L189.725 150L217.629 195.656C224.144 206.318 216.471 220 203.976 220H96.0251C83.53 220 75.8569 206.318 82.3727 195.656L110.275 150L82.3727 104.344C75.8569 93.6821 83.53 80 96.0251 80H203.976ZM131.42 120C127.042 120 124.137 124.537 125.97 128.513L135.182 148.49C135.465 149.103 135.778 149.684 136.116 150.236C135.795 150.761 135.497 151.313 135.225 151.893L126.053 171.452C124.188 175.431 127.091 180 131.485 180H167.938C172.332 180 175.236 175.431 173.371 171.452L164.198 151.893C163.926 151.314 163.628 150.762 163.307 150.237C163.645 149.685 163.959 149.103 164.242 148.49L173.454 128.513C175.287 124.537 172.383 120 168.006 120H131.42Z" fill="#F4AA41"/>
</g>
<defs>
<clipPath id="clip0_265_53">
<rect width="300" height="300" fill="white"/>
</clipPath>
<clipPath id="clip1_265_53">
<rect width="77" height="77" fill="white" transform="translate(223 223)"/>
</clipPath>
<clipPath id="clip2_265_53">
<rect width="50" height="27" fill="white" transform="translate(237 248)"/>
</clipPath>
</defs>
</svg>
