<svg width="300" height="300" viewBox="0 0 300 300" fill="none" xmlns="http://www.w3.org/2000/svg">
<path d="M203.976 80C216.471 80 224.144 93.6821 217.629 104.344L189.725 150L217.629 195.656C224.144 206.318 216.471 220 203.976 220H96.0251C83.5301 220 75.8569 206.318 82.3728 195.656L110.275 150L82.3728 104.344C75.8569 93.6821 83.53 80 96.0251 80H203.976ZM131.42 120C127.042 120 124.137 124.537 125.97 128.513L135.182 148.49C135.465 149.103 135.778 149.684 136.116 150.236C135.795 150.761 135.497 151.313 135.225 151.893L126.053 171.452C124.188 175.431 127.091 180 131.485 180H167.938C172.332 180 175.236 175.431 173.371 171.452L164.198 151.893C163.926 151.314 163.628 150.762 163.307 150.237C163.645 149.685 163.959 149.103 164.242 148.49L173.454 128.513C175.287 124.537 172.383 120 168.006 120H131.42Z" fill="#F4AA41"/>
</svg>
